<svg xmlns="http://www.w3.org/2000/svg" viewBox="0 0 946.75 1048.95"><defs><style>.cls-1{fill:#1d1d1b;}.cls-2{fill:#1d71b8;}</style></defs><title>AB_Bildmarke</title><g id="Ebene_1" data-name="Ebene 1"><path class="cls-1" d="M594.79,1128.08V79.13H807.16q67.13,0,113.5,18.14t74.45,53.09q28.08,35,40.89,83.52t12.83,106.84a409.57,409.57,0,0,1-11.59,97.78q-11.6,47.27-38.45,80.28t-75.67,43.38q57.35,16.85,90.31,57.64t45.77,94.53A475.51,475.51,0,0,1,1072,825.05q0,62.16-10.37,117.2T1025,1038.72q-26.25,41.44-71.39,65.41t-114.73,24Zm92.77-597H821.8q57.38,0,87.88-24t42.72-66Q964.61,399,964.61,340.72q0-63.45-16.48-104.89T891.38,175q-40.29-19.43-116-19.44H687.55Zm0,523.19h133q96.42,0,128.77-55.69t32.34-173.53q0-63.45-14.64-112.66t-49.44-77.06Q882.83,607.49,823,607.49H687.55Z" transform="translate(-125.27 -79.13)"/><polygon class="cls-2" points="0 1047.42 106.78 1047.42 543.22 0.01 456.99 0.01 0 1047.42"/></g><g id="Ebene_4" data-name="Ebene 4"><polygon class="cls-1" points="19 1047.42 125.78 1047.42 562.22 0.01 475.99 0.01 19 1047.42"/><rect class="cls-1" x="384.73" y="451.54" width="134" height="76.33"/></g></svg>