<?xml version="1.0" encoding="utf-8"?>
<!-- Generator: Adobe Illustrator 16.0.3, SVG Export Plug-In . SVG Version: 6.00 Build 0)  -->
<!DOCTYPE svg PUBLIC "-//W3C//DTD SVG 1.1//EN" "http://www.w3.org/Graphics/SVG/1.1/DTD/svg11.dtd">
<svg version="1.1" id="Ebene_1" xmlns="http://www.w3.org/2000/svg" xmlns:xlink="http://www.w3.org/1999/xlink" x="0px" y="0px"
	 width="502.453px" height="106.643px" viewBox="0 0 502.453 106.643" enable-background="new 0 0 502.453 106.643"
	 xml:space="preserve">
<g id="Hochschule_mit_Zusatz">
	<g>
		<path fill="#707173" d="M271.676,28.223V15.456h-11.909v12.768h-4.362V0.491h4.362v11.498h11.909V0.491h4.407v27.732H271.676z"/>
		<path fill="#707173" d="M293.893,28.708c-8.356,0-11.374-4.076-11.374-14.964C282.519,2.855,286.961,0,293.893,0
			c7.59,0,11.422,3.385,11.422,13.745C305.314,24.67,301.682,28.708,293.893,28.708z M293.893,3.304
			c-4.81,0-6.851,2.651-6.851,10.441c0,8.81,1.998,11.659,6.851,11.659c4.69,0,6.893-3.179,6.893-11.659
			C300.785,5.792,298.545,3.304,293.893,3.304z"/>
		<path fill="#707173" d="M321.414,28.708c-8.201,0-10.728-5.053-10.728-14.964C310.687,4.038,315.049,0,321.538,0
			c4.076,0,6.321,1.263,6.888,1.549v3.627c-1.016-0.691-3.385-1.749-5.706-1.749c-5.02,0-7.504,3.018-7.504,10.317
			c0,8.274,2.159,11.541,7.423,11.541c2.852,0,5.421-1.468,5.992-1.878v3.714C328.227,27.526,325.208,28.708,321.414,28.708z"/>
		<path fill="#707173" d="M350.483,28.223V15.456h-11.909v12.768h-4.361V0.491h4.361v11.498h11.909V0.491h4.405v27.732H350.483z"/>
		<path fill="#707173" d="M369.761,28.708c-3.87,0-8.032-1.102-8.891-1.63V23.37c1.349,0.771,5.183,1.916,8.244,1.916
			c3.95,0,5.954-1.43,5.954-4.242c0-2.122-1.637-3.18-3.671-4.201c-3.958-1.959-10.484-3.342-10.484-9.787
			c0-4.773,4.038-7.056,8.935-7.056c4.119,0,7.951,1.306,8.643,1.63v3.627c-1.425-0.815-4.89-1.873-7.87-1.873
			c-3.019,0-5.098,1.101-5.098,3.671c0,1.954,1.589,3.141,3.63,4.156c4.647,2.37,10.482,3.752,10.482,9.426
			C379.635,26.711,375.105,28.708,369.761,28.708z"/>
		<path fill="#707173" d="M395.403,28.708c-8.194,0-10.72-5.053-10.72-14.964C384.684,4.038,389.043,0,395.527,0
			c4.082,0,6.322,1.263,6.894,1.549v3.627c-1.019-0.691-3.385-1.749-5.712-1.749c-5.014,0-7.502,3.018-7.502,10.317
			c0,8.274,2.163,11.541,7.422,11.541c2.856,0,5.425-1.468,5.998-1.878v3.714C402.216,27.526,399.199,28.708,395.403,28.708z"/>
		<path fill="#707173" d="M424.474,28.223V15.456h-11.908v12.768h-4.361V0.491h4.361v11.498h11.908V0.491h4.405v27.732H424.474z"/>
		<path fill="#707173" d="M446.65,28.708c-8.032,0-10.559-4.076-10.559-10.397V0.491h4.405v17.291c0,4.854,1.667,7.503,6.153,7.503
			c4.367,0,6.034-2.731,6.034-7.503V0.491h4.448v17.777C457.133,24.67,453.786,28.708,446.65,28.708z"/>
		<path fill="#707173" d="M464.303,28.223V0.491h4.362v24.222h11.541v3.51H464.303z"/>
		<path fill="#707173" d="M485.459,28.223V0.491h16.601V3.79h-12.238v8.324h11.908v3.217h-11.908v9.588h12.604v3.304H485.459z"/>
		<path fill="#707173" d="M260.104,44.942c-1.393,0-2.09,0.695-2.09,2.089v1.619h3.31v1.863h-3.31v10.876h-2.61v-14.78
			c0-2.488,1.692-3.509,4.153-3.509c0.821,0,1.793,0.222,1.917,0.222v1.895C261.373,45.19,260.53,44.942,260.104,44.942z"/>
		<path fill="#707173" d="M269.136,61.686c-4.007,0-5.453-1.745-5.453-4.179V48.65h2.591v7.563c0,2.314,0.648,3.604,2.959,3.604
			c1.021,0,2.765-0.248,3.089-0.47V48.65h2.611v12.14C274.26,61.016,271.721,61.686,269.136,61.686z M266.102,46.134v-2.062h2.11
			v2.062H266.102z M270.377,46.134v-2.062h2.144v2.062H270.377z"/>
		<path fill="#707173" d="M284.359,50.193c-1.346,0-2.786,0.449-3.186,0.547v10.649h-2.585V49.369
			c0.447-0.223,3.135-1.021,5.445-1.021c0.175,0,1.421,0.027,1.621,0.124v1.847C285.407,50.263,284.656,50.193,284.359,50.193z"/>
		<path fill="#707173" d="M312.398,61.389V46.286l-5.452,15.104h-2.933l-5.479-15.104v15.104h-2.213V44.465h3.958l5.328,14.883
			l5.246-14.883h3.958v16.924H312.398z"/>
		<path fill="#707173" d="M323.563,61.686c-3.579,0-5.522-1.42-5.522-4.033c0-3.06,3.062-4.178,6.218-4.178h2.964v-0.867
			c0-1.594-1.021-2.49-3.708-2.49c-1.868,0-4.082,0.869-4.453,1.042v-1.861c0.42-0.152,2.709-0.95,5.073-0.95
			c3.882,0,5.625,1.273,5.625,4.384v8.105C329.188,61.085,327.071,61.686,323.563,61.686z M327.222,55.042h-2.089
			c-2.839,0-4.508,0.625-4.508,2.54c0,1.518,1.247,2.386,3.137,2.386c1.694,0,3.137-0.297,3.46-0.447V55.042z"/>
		<path fill="#707173" d="M342.245,61.389v-7.761c0-2.345-0.847-3.387-3.06-3.387c-1.422,0-2.738,0.4-3.186,0.573v10.574h-2.585
			V49.396c0.646-0.222,3.231-1.048,5.846-1.048c3.558,0,5.571,1.344,5.571,4.185v8.856H342.245z"/>
		<path fill="#707173" d="M353.269,61.686c-3.584,0-5.522-1.42-5.522-4.033c0-3.06,3.056-4.178,6.22-4.178h2.959v-0.867
			c0-1.594-1.021-2.49-3.705-2.49c-1.866,0-4.08,0.869-4.459,1.042v-1.861c0.428-0.152,2.717-0.95,5.081-0.95
			c3.881,0,5.625,1.273,5.625,4.384v8.105C358.894,61.085,356.779,61.686,353.269,61.686z M356.925,55.042h-2.09
			c-2.835,0-4.502,0.625-4.502,2.54c0,1.518,1.241,2.386,3.137,2.386c1.688,0,3.13-0.297,3.455-0.447V55.042z"/>
		<path fill="#707173" d="M366.836,66.912c-2.49,0-2.846-0.696-3.396-0.972v-1.987c0.571,0.346,2.839,1.166,4.403,1.166
			c3.013,0,4.131-1.22,4.131-3.557v-1.069c-0.421,0.199-2.041,0.896-3.956,0.896c-3.635,0-5.426-2.041-5.426-6.693
			c0-4.129,2.165-6.348,6.32-6.348c2.662,0,5.204,0.826,5.651,1.074v11.988C374.564,64.898,371.316,66.912,366.836,66.912z
			 M371.975,50.788c-0.248-0.097-1.42-0.573-3.158-0.573c-2.413,0-3.558,1.621-3.558,4.481c0,3.206,1.192,4.825,3.558,4.825
			c1.421,0,2.835-0.522,3.158-0.724V50.788z"/>
		<path fill="#707173" d="M380.381,55.516c0.054,2.888,1.22,4.377,4.155,4.377c1.744,0,3.834-0.771,4.179-1.118v1.939
			c-0.297,0.226-2.187,0.972-4.972,0.972c-4.556,0-5.95-2.364-5.95-6.99c0-4.129,2.165-6.348,5.8-6.348
			c3.557,0,5.749,2.294,5.749,6.348v0.82H380.381z M383.593,50.09c-2.068,0-3.158,1.346-3.212,3.834h6.443
			C386.776,51.711,385.707,50.09,383.593,50.09z"/>
		<path fill="#707173" d="M409.114,61.389v-7.761c0-2.192-0.717-3.387-2.936-3.387c-1.539,0-2.759,0.449-3.185,0.595
			c0.15,0.178,0.474,1.123,0.474,1.868v8.685h-2.585v-7.761c0-2.144-0.697-3.387-2.938-3.387c-1.468,0-2.612,0.449-2.887,0.573
			v10.574h-2.586V49.396c0.496-0.2,2.936-1.048,5.397-1.048c2.337,0,3.683,0.7,3.931,0.95c0.646-0.325,2.537-0.95,4.777-0.95
			c3.785,0,5.129,1.915,5.129,4.185v8.856H409.114z"/>
		<path fill="#707173" d="M417.521,55.516c0.049,2.888,1.22,4.377,4.157,4.377c1.737,0,3.827-0.771,4.178-1.118v1.939
			c-0.297,0.226-2.192,0.972-4.977,0.972c-4.551,0-5.949-2.364-5.949-6.99c0-4.129,2.165-6.348,5.798-6.348
			c3.563,0,5.749,2.294,5.749,6.348v0.82H417.521z M420.728,50.09c-2.063,0-3.158,1.346-3.207,3.834h6.446
			C423.913,51.711,422.844,50.09,420.728,50.09z"/>
		<path fill="#707173" d="M438.445,61.389v-7.761c0-2.345-0.848-3.387-3.062-3.387c-1.419,0-2.736,0.4-3.186,0.573v10.574h-2.59
			V49.396c0.646-0.222,3.233-1.048,5.846-1.048c3.563,0,5.576,1.344,5.576,4.185v8.856H438.445z"/>
		<path fill="#707173" d="M448.567,61.659c-2.766,0-3.786-1.241-3.786-3.255v-12.74h2.593v2.986h3.358v1.863h-3.358v7.389
			c0,1.221,0.669,1.894,1.915,1.894c0.299,0,1.319-0.199,1.718-0.323v1.891C450.358,61.535,449.263,61.659,448.567,61.659z"/>
		<path fill="#707173" d="M260.058,95.879c-3.536,0-4.653-1.798-4.653-4.583v-7.851h1.94v7.617c0,2.138,0.738,3.304,2.713,3.304
			c1.926,0,2.662-1.203,2.662-3.304v-7.617h1.957v7.833C264.677,94.097,263.203,95.879,260.058,95.879z"/>
		<path fill="#707173" d="M273.787,95.663v-5.609c0-1.683-0.611-2.439-2.212-2.439c-1.022,0-1.977,0.286-2.3,0.411v7.638h-1.868
			v-8.658c0.467-0.161,2.336-0.756,4.222-0.756c2.571,0,4.024,0.972,4.024,3.019v6.396H273.787z"/>
		<path fill="#707173" d="M278.246,84.706v-1.604h1.937v1.604H278.246z M278.278,95.663v-9.198h1.866v9.198H278.278z"/>
		<path fill="#707173" d="M287.493,95.663h-2.456l-3.256-9.198h1.977l2.553,7.887l2.531-7.887h1.891L287.493,95.663z"/>
		<path fill="#707173" d="M293.635,91.42c0.038,2.082,0.886,3.162,3.003,3.162c1.257,0,2.77-0.555,3.018-0.809v1.403
			c-0.216,0.162-1.583,0.702-3.589,0.702c-3.288,0-4.298-1.706-4.298-5.054c0-2.98,1.564-4.577,4.189-4.577
			c2.569,0,4.15,1.651,4.15,4.577v0.595H293.635z M295.958,87.506c-1.491,0-2.285,0.972-2.323,2.765h4.655
			C298.258,88.672,297.485,87.506,295.958,87.506z"/>
		<path fill="#707173" d="M306.446,87.576c-0.966,0-2.009,0.324-2.3,0.396v7.691h-1.868v-8.68c0.323-0.163,2.268-0.734,3.937-0.734
			c0.124,0,1.025,0.016,1.166,0.086v1.333C307.203,87.63,306.662,87.576,306.446,87.576z"/>
		<path fill="#707173" d="M311.872,95.879c-1.938,0-3.18-0.486-3.52-0.702v-1.403c0.609,0.415,2.013,0.809,3.07,0.809
			c1.653,0,2.3-0.593,2.3-1.327c0-0.609-0.609-0.988-1.382-1.296c-1.888-0.734-4.004-1.182-4.004-3.072
			c0-1.705,1.597-2.639,3.643-2.639c1.837,0,3.148,0.557,3.326,0.681v1.365c-0.487-0.27-1.653-0.734-2.911-0.734
			c-1.618,0-2.175,0.557-2.175,1.182c0,0.579,0.632,0.918,1.404,1.226c1.527,0.61,4.042,1.182,4.042,3.002
			C315.666,94.747,314.425,95.879,311.872,95.879z"/>
		<path fill="#707173" d="M317.729,84.706v-1.604h1.938v1.604H317.729z M317.767,95.663v-9.198h1.868v9.198H317.767z"/>
		<path fill="#707173" d="M324.99,95.858c-1.997,0-2.732-0.896-2.732-2.355v-9.198h1.869v2.16h2.423v1.344h-2.423v5.339
			c0,0.881,0.484,1.365,1.381,1.365c0.216,0,0.95-0.146,1.241-0.236v1.365C326.28,95.772,325.492,95.858,324.99,95.858z"/>
		<path fill="#707173" d="M331.58,99.491h-1.834l1.511-3.828l-3.573-9.198h1.977l2.585,7.331l2.516-7.331h1.868L331.58,99.491z"/>
		<path fill="#707173" d="M346.948,95.879c-3.503,0-4.491-1.62-4.491-5.054c0-3.25,1.597-4.577,4.491-4.577
			c2.946,0,4.529,1.273,4.529,4.577C351.478,94.676,349.895,95.879,346.948,95.879z M346.948,87.592
			c-1.853,0-2.571,0.972-2.571,3.233c0,2.732,0.719,3.719,2.571,3.719c1.775,0,2.585-1.058,2.585-3.719
			C349.533,88.581,348.777,87.592,346.948,87.592z"/>
		<path fill="#707173" d="M357.081,83.787c-1.005,0-1.513,0.502-1.513,1.506v1.172h2.393v1.344h-2.393v7.854h-1.883V84.991
			c0-1.798,1.22-2.531,3-2.531c0.589,0,1.292,0.162,1.384,0.162v1.359C357.999,83.965,357.383,83.787,357.081,83.787z"/>
		<path fill="#707173" d="M371.575,95.663l-3.287-10.85l-3.32,10.85h-1.998l4.152-12.217h2.461l4.076,12.217H371.575z"/>
		<path fill="#707173" d="M379.662,95.879c-1.29,0-2.531-0.416-2.785-0.61v4.222h-1.868V87.004c0.447-0.217,2.3-0.756,4.168-0.756
			c3.07,0,4.491,1.489,4.491,4.577C383.668,94.437,382.106,95.879,379.662,95.879z M379.198,87.592c-1.26,0-2.084,0.323-2.321,0.433
			v6.04c0.485,0.232,1.457,0.479,2.3,0.479c1.78,0,2.553-1.128,2.553-3.719C381.729,88.51,380.795,87.592,379.198,87.592z"/>
		<path fill="#707173" d="M390.551,95.879c-1.295,0-2.537-0.416-2.786-0.61v4.222h-1.867V87.004c0.447-0.217,2.3-0.756,4.166-0.756
			c3.072,0,4.492,1.489,4.492,4.577C394.556,94.437,392.99,95.879,390.551,95.879z M390.08,87.592c-1.258,0-2.084,0.323-2.315,0.433
			v6.04c0.486,0.232,1.453,0.479,2.299,0.479c1.777,0,2.55-1.128,2.55-3.719C392.613,88.51,391.679,87.592,390.08,87.592z"/>
		<path fill="#707173" d="M396.779,95.663V82.675h1.868v12.987H396.779z"/>
		<path fill="#707173" d="M401.238,84.706v-1.604h1.938v1.604H401.238z M401.271,95.663v-9.198h1.869v9.198H401.271z"/>
		<path fill="#707173" d="M407.253,91.42c0.038,2.082,0.886,3.162,3.001,3.162c1.259,0,2.77-0.555,3.018-0.809v1.403
			c-0.215,0.162-1.581,0.702-3.589,0.702c-3.288,0-4.298-1.706-4.298-5.054c0-2.98,1.565-4.577,4.189-4.577
			c2.569,0,4.152,1.651,4.152,4.577v0.595H407.253z M409.574,87.506c-1.491,0-2.283,0.972-2.321,2.765h4.653
			C411.874,88.672,411.102,87.506,409.574,87.506z"/>
		<path fill="#707173" d="M419.955,95.879c-3.288,0-4.438-1.652-4.438-5.054c0-3.018,1.604-4.577,3.974-4.577
			c1.344,0,2.548,0.447,2.801,0.571v-4.145h1.869v12.432C423.458,95.409,421.861,95.879,419.955,95.879z M422.292,88.079
			c-0.377-0.179-1.381-0.486-2.299-0.486c-1.705,0-2.554,1.08-2.554,3.233c0,2.645,0.795,3.719,2.537,3.719
			c1.166,0,2.063-0.317,2.315-0.426V88.079z"/>
		<path fill="#707173" d="M435.82,95.879c-1.705,0-3.541-0.486-3.918-0.718v-1.637c0.593,0.341,2.283,0.842,3.627,0.842
			c1.744,0,2.623-0.625,2.623-1.866c0-0.935-0.717-1.405-1.613-1.853c-1.744-0.864-4.621-1.473-4.621-4.313
			c0-2.1,1.781-3.104,3.935-3.104c1.814,0,3.504,0.573,3.813,0.719v1.598c-0.632-0.361-2.154-0.825-3.466-0.825
			c-1.335,0-2.245,0.485-2.245,1.613c0,0.864,0.695,1.387,1.597,1.836c2.047,1.042,4.615,1.651,4.615,4.15
			C440.166,95,438.174,95.879,435.82,95.879z"/>
		<path fill="#707173" d="M446.133,95.879c-2.986,0-4.082-1.55-4.082-5.054c0-3.195,1.581-4.577,4.098-4.577
			c1.689,0,2.731,0.518,2.984,0.702v1.397c-0.431-0.285-1.419-0.734-2.429-0.734c-1.761,0-2.73,0.95-2.73,3.233
			c0,2.695,0.916,3.682,2.73,3.682c1.08,0,2.283-0.609,2.515-0.771v1.419C448.917,95.376,447.639,95.879,446.133,95.879z"/>
		<path fill="#707173" d="M451.217,84.706v-1.604h1.938v1.604H451.217z M451.249,95.663v-9.198h1.869v9.198H451.249z"/>
		<path fill="#707173" d="M457.231,91.42c0.038,2.082,0.885,3.162,3.001,3.162c1.258,0,2.77-0.555,3.018-0.809v1.403
			c-0.215,0.162-1.582,0.702-3.589,0.702c-3.288,0-4.298-1.706-4.298-5.054c0-2.98,1.565-4.577,4.189-4.577
			c2.569,0,4.15,1.651,4.15,4.577v0.595H457.231z M459.553,87.506c-1.491,0-2.283,0.972-2.321,2.765h4.653
			C461.853,88.672,461.08,87.506,459.553,87.506z"/>
		<path fill="#707173" d="M472.255,95.663v-5.609c0-1.683-0.611-2.439-2.214-2.439c-1.021,0-1.976,0.286-2.299,0.411v7.638h-1.869
			v-8.658c0.471-0.161,2.338-0.756,4.223-0.756c2.568,0,4.027,0.972,4.027,3.019v6.396H472.255z"/>
		<path fill="#707173" d="M480.443,95.879c-2.979,0-4.074-1.55-4.074-5.054c0-3.195,1.581-4.577,4.096-4.577
			c1.686,0,2.728,0.518,2.98,0.702v1.397c-0.431-0.285-1.419-0.734-2.424-0.734c-1.76,0-2.732,0.95-2.732,3.233
			c0,2.695,0.918,3.682,2.732,3.682c1.075,0,2.278-0.609,2.516-0.771v1.419C483.229,95.376,481.956,95.879,480.443,95.879z"/>
		<path fill="#707173" d="M487.057,91.42c0.038,2.082,0.88,3.162,3.002,3.162c1.258,0,2.764-0.555,3.019-0.809v1.403
			c-0.218,0.162-1.583,0.702-3.597,0.702c-3.288,0-4.29-1.706-4.29-5.054c0-2.98,1.559-4.577,4.182-4.577
			c2.571,0,4.152,1.651,4.152,4.577v0.595H487.057z M489.372,87.506c-1.489,0-2.277,0.972-2.315,2.765h4.653
			C491.672,88.672,490.901,87.506,489.372,87.506z"/>
		<path fill="#707173" d="M498.664,95.879c-1.943,0-3.18-0.486-3.521-0.702v-1.403c0.611,0.415,2.009,0.809,3.072,0.809
			c1.653,0,2.3-0.593,2.3-1.327c0-0.609-0.614-0.988-1.387-1.296c-1.885-0.734-4.007-1.182-4.007-3.072
			c0-1.705,1.6-2.639,3.65-2.639c1.829,0,3.143,0.557,3.326,0.681v1.365c-0.487-0.27-1.658-0.734-2.916-0.734
			c-1.613,0-2.17,0.557-2.17,1.182c0,0.579,0.627,0.918,1.397,1.226c1.528,0.61,4.044,1.182,4.044,3.002
			C502.453,94.747,501.212,95.879,498.664,95.879z"/>
	</g>
	<g>
		<path id="Logo_Schriftzug_Grau_2_" fill="#707173" d="M57.23,80.246c0,3.299,2.634,5.938,5.938,5.938h50.952
			c9.188,0,14.732-7.462,14.732-16.644c0-9.376-5.544-16.836-14.732-16.836H92.139c-14.543,0-26.217-11.678-26.217-26.215
			c0-14.549,11.674-26.409,26.217-26.409h98.388v9.566H166.26c-3.301,0-5.953,2.678-5.953,5.982v80.133h-11.479V15.628
			c0-3.304-2.68-5.982-5.979-5.982H92.139c-9.188,0-14.732,7.467-14.732,16.843c0,9.178,5.543,16.648,14.732,16.648h21.982
			c14.54,0,26.217,11.866,26.217,26.402c0,14.537-11.677,26.221-26.217,26.221H45.743V26.252H57.23V80.246"/>
		<g>
			<path fill="#7AB51D" d="M51.478,19.137L51.478,19.137c-0.494,0-0.95-0.264-1.197-0.69l-9.41-16.303
				c-0.247-0.426-0.247-0.95,0-1.382c0.247-0.426,0.704-0.691,1.198-0.691h18.821c0.494,0,0.95,0.265,1.197,0.691
				c0.247,0.432,0.247,0.956,0,1.382l-9.412,16.303C52.427,18.873,51.971,19.137,51.478,19.137z"/>
		</g>
		<path fill="#7AB51D" d="M92.14,55.441c-8.887,0-16.841-4.026-22.156-10.348l-10.008,8.221v26.927c0,1.797,1.401,3.199,3.195,3.199
			h50.954c8.281,0,11.991-6.979,11.991-13.905c0-7.012-3.71-14.094-11.991-14.094H92.14z M207.392,101.742L163.05,65.324v33.174
			h-16.964V51.393l-40.129-32.958c-0.511-0.421-1.133-0.632-1.755-0.632s-1.245,0.21-1.756,0.632L82.364,34.928
			c1.915,3.195,5.088,5.469,9.776,5.469h21.984c15.969,0,28.956,13.073,28.956,29.138c0,15.974-12.987,28.963-28.956,28.963H43.001
			v-31.24L1.012,101.742c-0.904,0.74-1.245,1.971-0.849,3.067c0.393,1.101,1.435,1.834,2.601,1.834h202.874
			c1.166,0,2.208-0.733,2.604-1.834C208.633,103.712,208.293,102.482,207.392,101.742"/>
	</g>
</g>
</svg>
