<svg id="Gruppe_642" data-name="Gruppe 642" xmlns="http://www.w3.org/2000/svg" width="329.695" height="118.539" viewBox="0 0 329.695 118.539">
  <g id="Gruppe_1" data-name="Gruppe 1" transform="translate(0 0.003)">
    <path id="Pfad_1" data-name="Pfad 1" d="M329.646,176.73v-3.179h-7.58v2.685H326.5V177.4a4.683,4.683,0,0,1-1.05,3.263,4.387,4.387,0,0,1-3.381,1.457A4.158,4.158,0,0,1,319,180.869c-1.018-1.107-1.253-2.3-1.253-6.471s.235-5.335,1.253-6.442a4.173,4.173,0,0,1,3.063-1.282,4.239,4.239,0,0,1,4.373,3.614h3.179a7.3,7.3,0,0,0-7.551-6.446,7.429,7.429,0,0,0-5.453,2.217c-2.041,2.042-2.009,4.346-2.009,8.339s-.032,6.3,2.009,8.337a7.963,7.963,0,0,0,11.169-.144c1.367-1.457,1.863-3.179,1.863-5.861m-19.58,8.047V164.016h-3.15V178.6l-9.593-14.581h-2.885v20.761h3.15V170.169l9.591,14.608Zm-20.56-7V164.016h-3.149v13.619a4.119,4.119,0,0,1-4.316,4.488c-2.594,0-4.284-1.718-4.284-4.488V164.016h-3.149v13.763c0,4.287,3.208,7.17,7.433,7.17s7.465-2.883,7.465-7.169M271.12,166.846v-2.829H256.543v2.829h5.715v17.931h3.149V166.846Zm-17.267,12.011a5.426,5.426,0,0,0-1.689-4.252,6.863,6.863,0,0,0-3.881-1.546l-2.359-.351a4.643,4.643,0,0,1-2.334-.962,2.482,2.482,0,0,1-.787-1.925c0-1.837,1.341-3.236,3.79-3.236a6.094,6.094,0,0,1,4.521,1.606l2.009-1.982a8.629,8.629,0,0,0-6.444-2.365c-4.313,0-6.939,2.48-6.939,6.1a5.155,5.155,0,0,0,1.517,3.962,7.083,7.083,0,0,0,3.935,1.663l2.449.351a3.607,3.607,0,0,1,2.276.875,2.8,2.8,0,0,1,.814,2.159c0,2.012-1.573,3.176-4.284,3.176a6.857,6.857,0,0,1-5.308-1.982l-2.1,2.07c1.984,2.013,4.228,2.74,7.348,2.74,4.344,0,7.465-2.273,7.465-6.1m-18.42-14.841h-3.15v20.758h3.15ZM228.3,184.777v-2.829H218.181v-6.24h8.629v-2.8h-8.629v-6.066H228.3v-2.829H215.032v20.76Zm-16.9,0v-2.829h-10V164.016h-3.149v20.761Zm-24.752,0v-2.829H176.524v-6.24h8.632v-2.8h-8.632v-6.066h10.118v-2.829H173.377v20.76Zm-20.89-14.664c0,2.041-1.429,3.236-3.528,3.236H157.56v-6.5h4.665c2.1,0,3.528,1.225,3.528,3.268m3.791,14.664-4.782-9.184a5.449,5.449,0,0,0,4.14-5.511c0-3.525-2.508-6.066-6.442-6.066h-8.047v20.76h3.148v-8.747H161.5l4.372,8.747Zm-19.118,0v-2.829H140.309v-6.24h8.63v-2.8h-8.63v-6.066h10.116v-2.829H137.16v20.76ZM129.3,169.82c0,1.925-1.371,2.975-3.384,2.975h-4.663v-5.949h4.663c2.013,0,3.384,1.05,3.384,2.974m.319,8.949a3.082,3.082,0,0,1-3.41,3.18h-4.957V175.62h4.957c2.187,0,3.41,1.315,3.41,3.148m3.149.148a4.936,4.936,0,0,0-3.119-4.81,4.7,4.7,0,0,0,2.8-4.4c0-3.5-2.417-5.688-6.266-5.688h-8.077v20.76h8.4c3.673,0,6.268-2.042,6.268-5.861m-19.6-1.136V164.016h-3.149v13.619a4.12,4.12,0,0,1-4.318,4.488c-2.594,0-4.284-1.718-4.284-4.488V164.016H98.276v13.763c0,4.287,3.208,7.17,7.433,7.17s7.467-2.883,7.467-7.169m-22.79.145H84l3.236-9.212Zm5.657,6.852-7.611-20.76H85.9l-7.611,20.76h3.354l1.43-4.171h8.193l1.427,4.171Zm-19.71-5.921a5.425,5.425,0,0,0-1.691-4.252,6.863,6.863,0,0,0-3.881-1.546l-2.362-.351a4.65,4.65,0,0,1-2.333-.962,2.469,2.469,0,0,1-.787-1.925c0-1.837,1.341-3.236,3.791-3.236a6.1,6.1,0,0,1,4.52,1.606l2.009-1.982a8.63,8.63,0,0,0-6.442-2.365c-4.314,0-6.94,2.48-6.94,6.1a5.156,5.156,0,0,0,1.517,3.962,7.085,7.085,0,0,0,3.935,1.663l2.45.351a3.594,3.594,0,0,1,2.272.875,2.792,2.792,0,0,1,.817,2.159c0,2.012-1.573,3.176-4.285,3.176a6.853,6.853,0,0,1-5.307-1.982l-2.1,2.07c1.984,2.013,4.228,2.74,7.348,2.74,4.344,0,7.466-2.273,7.466-6.1m-28.019-8.744c0,2.041-1.427,3.236-3.529,3.236H40.121v-6.5h4.663c2.1,0,3.529,1.225,3.529,3.268M52.1,184.777l-4.781-9.184a5.45,5.45,0,0,0,4.14-5.511c0-3.525-2.508-6.066-6.443-6.066H36.971v20.76H40.12v-8.747h3.935l4.374,8.747ZM22.766,158.711H20.085v3.15h2.681Zm6.3,0H26.382v3.15h2.681v-3.15Zm2.976,19.069V164.016H28.89v13.619a4.119,4.119,0,0,1-4.316,4.488c-2.594,0-4.284-1.718-4.284-4.488V164.016H17.14v13.763c0,4.287,3.208,7.17,7.433,7.17s7.465-2.883,7.465-7.169M13.556,166.846v-2.829H.293v20.76H3.441V176h8.63v-2.832H3.441v-6.325Z" transform="translate(-0.123 -66.417)"/>
    <path id="Pfad_2" data-name="Pfad 2" d="M62.052,9.218A36.894,36.894,0,0,0,37.434.047L0,.006V74.941l22.47.006V22.5l15-.008a15.025,15.025,0,0,1,14.95,14.331l.027,38.187h22.5V37.449c-.076-11.376-5.746-22.212-12.9-28.231" transform="translate(0 -0.006)"/>
    <path id="Pfad_3" data-name="Pfad 3" d="M179.218.006a37.466,37.466,0,0,0,0,74.932h37.459V37.681A37.488,37.488,0,0,0,179.218.006m14.96,52.37-14.96,0a14.941,14.941,0,1,1,12.442-23.233,14.6,14.6,0,0,1,2.525,8.747Z" transform="translate(-59.319 -0.006)"/>
  </g>
  <g id="Gruppe_2" data-name="Gruppe 2" transform="translate(172.379 0)">
    <path id="Pfad_4" data-name="Pfad 4" d="M334.016,0h-37.6V74.936h37.731a37.4,37.4,0,0,0,37.171-37.259V37.26A37.545,37.545,0,0,0,334.016,0m14.876,37.514a14.914,14.914,0,0,1-13.679,14.87l-16.357.015.036-29.914,15.694.04v.043c7.633.561,14.305,6.988,14.305,14.783Z" transform="translate(-296.415 0)"/>
    <path id="Pfad_5" data-name="Pfad 5" d="M507.978,18.714a37.458,37.458,0,1,0-32.419,56.222H513.02V37.676a37.8,37.8,0,0,0-5.041-18.962M490.521,52.371l-14.962,0A14.941,14.941,0,1,1,488,29.139a14.607,14.607,0,0,1,2.525,8.751Z" transform="translate(-355.704 0)"/>
  </g>
</svg>
